<svg
	xmlns="http://www.w3.org/2000/svg"
	viewBox="0 0 100 97">
	<path d="M0 48.0368C-1.65132e-08 47.8479 0.0138872 47.659 0.0416649 47.4701C0.0472205 47.4174 0.0555528 47.3646 0.0666639 47.3118C0.0722195 47.284 0.0777743 47.2535 0.0833299 47.2257C0.0972188 47.1674 0.108337 47.109 0.125003 47.0507C0.14167 46.9896 0.158337 46.9257 0.177782 46.8646C0.197226 46.8035 0.216663 46.7424 0.238885 46.6813C0.261107 46.6201 0.28611 46.5618 0.31111 46.5007C0.33611 46.4424 0.361109 46.384 0.388887 46.3257C0.416665 46.2701 0.44722 46.2118 0.474997 46.1563C0.530553 46.059 0.588888 45.9618 0.649999 45.8674C0.658332 45.8535 0.663887 45.8424 0.674998 45.8313C0.708331 45.7785 0.747224 45.7285 0.783335 45.6757C0.894446 45.5257 1.01945 45.384 1.15556 45.2479L45.2472 1.15625C46.7861 -0.385417 49.2833 -0.385417 50.825 1.15625C51.5944 1.92569 51.9806 2.9368 51.9806 3.94791C51.9806 4.95625 51.5944 5.96458 50.825 6.7368L13.4667 44.0924L96.0556 44.0924C98.2333 44.0924 100 45.859 100 48.0368C100 49.1257 99.5583 50.1118 98.8445 50.8257C98.1306 51.5396 97.1444 51.9812 96.0556 51.9812L13.4667 51.9813L50.825 89.3368C52.3667 90.8785 52.3667 93.3757 50.825 94.9174C50.0556 95.6868 49.0444 96.0729 48.0361 96.0729C47.025 96.0729 46.0167 95.6868 45.2472 94.9174L1.15556 50.8257L0.783336 50.3979C0.747225 50.3451 0.708332 50.2951 0.674998 50.2424C0.663887 50.2313 0.658333 50.2201 0.649999 50.2063C0.588888 50.1118 0.530553 50.0146 0.474998 49.9174C0.44722 49.8618 0.416665 49.8035 0.388887 49.7479C0.36111 49.6896 0.33611 49.6313 0.31111 49.5729C0.28611 49.5118 0.261107 49.4535 0.238885 49.3924C0.216663 49.3313 0.197226 49.2701 0.177782 49.209C0.158338 49.1479 0.14167 49.084 0.125003 49.0229C0.108337 48.9646 0.0972189 48.9063 0.08333 48.8479L0.066664 48.7618C0.0555529 48.709 0.0472206 48.6563 0.041665 48.6035L0 48.0368Z" fill="#FFBB00"/>
</svg>
