<svg
	xmlns="http://www.w3.org/2000/svg"
	viewBox="0 0 100 43">
	<g>
		<path d="M98.4 18.3407C97.16 16.1307 95.61 13.9907 93.82 12.2007C91.7 10.0707 89.18 8.34066 86.82 6.46066C86.33 6.07066 85.89 6.06066 85.57 6.74066C84.73 8.53066 83.83 10.2907 83.03 12.1007C82.92 12.3407 83.09 12.9107 83.31 13.0807C84.55 14.0407 85.87 14.8907 87.11 15.8507C89.68 17.8407 92.25 19.8507 94 22.6607C95.12 24.4607 96 26.3607 95.52 28.5907C94.99 31.0607 91.59 34.7507 88.98 35.6007C89.85 34.9107 90.62 34.3307 91.36 33.7107C94.55 31.0207 95.19 26.9707 93 23.4307C90.53 19.4507 86.7 17.0207 82.85 14.6307C82.66 14.5207 82.3 14.5007 82.13 14.6007C81.37 15.0507 81.31 16.4107 81.99 16.9407C84.34 18.7607 86.52 20.7307 88.09 23.3007C89.79 26.1107 89.3 29.4407 86.74 31.2107C85.26 29.6907 83.76 28.1307 82.25 26.5807C81.29 25.6007 80.95 22.9007 81.73 21.7507C82.17 21.1107 81.95 20.8407 81.32 20.7907C80.57 20.7407 79.82 20.7607 79.07 20.8007C78.42 20.8507 78.19 21.1307 78.65 21.7507C78.87 22.0607 78.96 22.4707 79.12 22.8407C78.99 22.9207 78.86 23.0007 78.72 23.0807C78.34 22.7507 77.94 22.4307 77.58 22.0707C76.31 20.8107 75.1 19.4807 73.76 18.2907C73.22 17.8207 72.42 17.4407 71.72 17.4007C68.66 17.2407 65.59 17.1707 62.53 17.1807C61.86 17.1907 61.12 17.5307 60.54 17.9107C59.75 18.4207 59.09 19.1207 58.37 19.7407C58.52 19.4007 58.74 19.1507 58.97 18.9107C60.1 17.6807 60.1 17.6907 58.92 16.5007C56.64 14.1807 54.33 11.9007 52.1 9.53066C51.47 8.86066 50.85 8.60066 49.96 8.60066C44.98 8.55066 40.01 8.43066 35.03 8.39066C34.55 8.38066 33.94 8.63066 33.59 8.97066C31.13 11.3207 28.72 13.7207 26.3 16.1107C26 16.4007 25.71 16.6907 25.41 16.9807C25.33 16.9307 25.24 16.8707 25.15 16.8207C25.36 15.8607 24.51 14.6307 26.03 13.9807C26.17 13.9307 26.22 13.4207 26.14 13.1807C26.09 13.0107 25.75 12.8307 25.54 12.8307C24 12.8007 22.47 12.7907 20.94 12.8307C20.7 12.8407 20.3 13.1407 20.28 13.3507C20.24 13.5907 20.52 13.8807 20.68 14.1407C20.91 14.5307 21.35 14.9107 21.37 15.3107C21.45 16.8407 21.48 18.3907 21.37 19.9107C21.32 20.5807 21.02 21.3807 20.56 21.8507C17.8 24.6907 14.95 27.4507 12.18 30.2807C11.83 30.6307 11.63 31.2407 11.59 31.7407C11.5 32.8107 11.56 33.8907 11.56 35.2507C7.57 34.3007 3.79 33.4007 0 32.5007C0 32.8007 0.05 32.9107 0.14 32.9507C1.24 33.4107 2.34 33.8707 3.45 34.3107C8.85 36.4307 14.47 37.8007 20.14 38.9607C24.19 39.7807 28.28 40.5107 32.39 41.0107C38.24 41.7207 44.11 42.4107 49.99 42.6907C55.96 42.9707 61.95 42.8507 67.92 42.2307C73.92 41.6107 79.58 39.6007 85.41 38.2907C88.63 37.5707 91.56 36.1007 94.33 34.2407C99.8 30.5507 101.63 24.0907 98.4 18.3407ZM49.31 38.8507C49.3 39.5707 48.98 39.7407 48.34 39.7307C46.92 39.7007 45.5 39.7207 43.51 39.7207C39.27 39.3007 34.46 38.9007 29.68 38.3307C26.27 37.9307 22.89 37.3007 19.5 36.8007C18.76 36.6907 18.5 36.3507 18.51 35.6207C18.52 33.4907 18.45 31.3507 18.49 29.2207C18.49 28.8007 18.75 28.2807 19.06 27.9807C23.73 23.3507 28.45 18.7707 33.1 14.1207C33.87 13.3507 34.29 13.3407 35.05 14.1107C39.64 18.7107 44.29 23.2707 48.9 27.8607C49.2 28.1707 49.46 28.6807 49.46 29.1007C49.45 32.3507 49.35 35.6007 49.31 38.8507ZM81.12 34.2307C81.09 34.5607 80.45 35.0007 80.02 35.1207C76.46 36.1007 72.9 37.0907 69.31 37.9307C67.47 38.3707 65.56 38.5307 63.5 38.8407C63.5 35.8507 63.48 33.0907 63.52 30.3307C63.53 29.9807 63.81 29.5707 64.07 29.2907C66.55 26.7007 69.07 24.1507 71.54 21.5507C72.12 20.9407 72.56 20.8507 73.2 21.4807C75.64 23.8407 78.13 26.1607 80.58 28.5207C80.84 28.7607 81.16 29.1107 81.17 29.4207C81.22 31.0207 81.24 32.6407 81.12 34.2307Z"/>
		<path d="M77.23 18.6907C75.92 18.2807 75.51 17.7207 75.82 16.6007C76.06 15.7407 76.47 14.9407 76.83 14.1107C77.26 13.1307 77.49 12.2407 77.26 11.0507C76.95 9.39066 76.25 8.43066 74.8 7.71066C72.97 6.79066 71.22 5.70066 69.45 4.65066C68.59 4.14066 68.35 3.33066 68.82 2.70066C69.41 1.90066 70.02 2.27066 70.67 2.66066C72.78 3.94066 74.9 5.20066 77.05 6.41066C77.31 6.56066 77.83 6.40066 78.16 6.24066C78.59 6.03066 78.92 5.50066 79.34 5.43066C80.76 5.20066 81.25 4.20066 81.66 3.03066C81.89 2.36066 82.21 1.72066 82.53 1.09066C83.09 -0.029343 83.87 -0.269343 85.25 0.290657C82.57 6.42066 79.9 12.5607 77.23 18.6907Z"/>
		<path d="M77.97 19.1307C77.94 18.7707 77.8 18.3607 77.91 18.0607C78.42 16.7407 79.01 15.4507 79.58 14.1507C81.41 9.94065 83.24 5.73065 85.07 1.53065C85.16 1.32065 85.22 1.07065 85.38 0.940654C85.68 0.690654 86.03 0.520654 86.37 0.310654C86.41 0.700654 86.6 1.15065 86.46 1.46065C84.57 5.76065 82.64 10.0407 80.72 14.3307C80.1 15.7207 79.49 17.1307 78.86 18.5207C78.75 18.7707 78.52 18.9607 78.34 19.1807C78.22 19.1607 78.1 19.1507 77.97 19.1307Z"/>
		<path d="M38.33 30.3307C38.34 31.9907 38.34 31.9907 36.62 31.9907C34.3 31.9907 34.3 31.9907 34.36 29.6707C34.4 28.2207 34.4 28.2207 35.89 28.2107C36.07 28.2007 36.26 28.2107 36.45 28.2107V28.1607C36.71 28.1607 36.97 28.1907 37.23 28.1607C38.05 28.0507 38.43 28.3507 38.34 29.2107C38.3 29.5807 38.33 29.9607 38.33 30.3307Z"/>
		<path d="M38.3 25.3207C38.24 27.7207 38.25 27.7207 36.34 27.6907C34.4 27.6607 34.4 27.6607 34.43 25.2207C34.45 23.8307 34.61 23.7907 37.23 23.8107C38.4 23.8207 38.32 24.5507 38.3 25.3207Z"/>
		<path d="M32.73 27.6207C29.9 27.6107 30.22 28.0207 30.19 25.6707C30.21 24.8607 29.73 23.8407 31.31 23.8607C33.72 23.9007 33.89 23.9007 33.91 25.1207C33.96 27.5007 33.92 27.6207 32.73 27.6207Z"/>
		<path d="M33.96 30.8807C34 32.0007 33.4 31.9707 32.64 31.9607C30.2 31.9407 30.2 31.9507 30.19 30.0707C30.19 28.2307 30.19 28.2307 32.71 28.2207C33.92 28.2107 33.86 28.2207 33.96 30.8807Z"/>
		<path d="M75.06 30.7007C75.05 30.9707 74.61 31.4407 74.36 31.4407C73.1 31.4807 71.83 31.4107 70.57 31.3407C69.75 31.3007 69.95 30.6507 69.94 30.1607C69.93 29.6407 69.87 29.0507 70.66 29.0307C71.47 29.0207 72.29 29.0307 73.11 29.0307V28.6607C72.38 28.6607 71.65 28.6107 70.93 28.6707C69.78 28.7607 69.95 27.9307 69.87 27.2607C69.77 26.4207 70.3 26.3607 70.92 26.3707C72 26.3707 73.08 26.3907 74.16 26.3307C74.8 26.2907 75.05 26.5407 75.05 27.1507C75.06 28.3307 75.13 29.5207 75.06 30.7007Z"/>
	</g>
</svg>